<?xml version="1.0" encoding="UTF-8"?>
<svg width="189px" height="32px" viewBox="0 0 189 32" version="1.1" xmlns="http://www.w3.org/2000/svg" xmlns:xlink="http://www.w3.org/1999/xlink">
    <!-- Generator: Sketch 43.2 (39069) - http://www.bohemiancoding.com/sketch -->
    <title>logo/main</title>
    <desc>Created with Sketch.</desc>
    <defs>
        <path d="M136.236979,14.0828152 C134.776399,14.0828152 133.869135,12.8863467 133.869135,10.9612866 C133.869135,9.02072453 134.776399,7.81439111 136.236979,7.81439111 C137.697558,7.81439111 138.604822,9.02072453 138.604822,10.9612866 C138.604822,12.8863467 137.697558,14.0828152 136.236979,14.0828152 L136.236979,14.0828152 Z M136.236979,4.89720633 C132.805844,4.89720633 130.410551,7.39020144 130.410551,10.9612866 C130.410551,14.5168698 132.805844,17 136.236979,17 C139.668113,17 142.063406,14.5168698 142.063406,10.9612866 C142.063406,7.39020144 139.668113,4.89720633 136.236979,4.89720633 L136.236979,4.89720633 Z M125.107101,16.7463318 L128.591689,16.7463318 L128.591689,5.15087458 L125.107101,5.15087458 L125.107101,16.7463318 Z M128.877737,2.00397911 C128.877737,3.08488767 127.986365,3.93185775 126.849395,3.93185775 C125.676308,3.93185775 124.793604,3.10320816 124.793604,2.00397911 C124.793604,0.923070546 125.696534,0.0761004725 126.849395,0.0761004725 C127.967584,0.0761004725 128.877737,0.94139103 128.877737,2.00397911 L128.877737,2.00397911 Z M119.074084,12.7862887 C118.718691,13.5275636 117.913999,14.0067147 117.018293,14.0067147 C115.432025,14.0067147 114.365845,12.7834701 114.365845,10.9612866 C114.365845,9.12501036 115.432025,7.89049159 117.018293,7.89049159 C117.874993,7.89049159 118.715801,8.392191 119.074084,9.11232695 L119.074084,12.7862887 Z M119.074084,5.90201442 C118.49043,5.3834038 117.458922,4.89720633 116.29017,4.89720633 C113.054068,4.89720633 110.879813,7.33383072 110.879813,10.9612866 C110.879813,14.5732405 113.054068,17 116.29017,17 C117.458922,17 118.49043,16.5152118 119.074084,15.9951919 L119.074084,16.7463318 L122.586121,16.7463318 L122.586121,0 L119.074084,0 L119.074084,5.90201442 Z M105.577807,5.15087458 L109.089844,5.15087458 L109.089844,16.7463318 L105.605256,16.7463318 L105.605256,15.8909061 C104.839572,16.589903 103.744498,17 102.613307,17 C100.012869,17 98.3991522,15.3469286 98.3991522,12.6862306 L98.3991522,5.15087458 L101.885185,5.15087458 L101.885185,12.05206 C101.885185,12.7538755 102.110556,13.9306143 103.627478,13.9306143 C104.602643,13.9306143 105.369772,13.3514051 105.580697,12.4551107 L105.577807,5.15087458 Z M96.2769053,13.5952085 L96.477717,13.4683744 L96.477717,16.5701733 L96.408372,16.605405 C95.9532952,16.8407527 95.1731636,16.9746332 94.2658995,16.9746332 C91.7001334,16.9746332 90.2857837,15.63301 90.2857837,13.1949764 L90.2857837,7.94122523 L88.5189302,7.94122523 L88.5189302,5.15087458 L90.2857837,5.15087458 L90.2857837,2.08007958 L93.7458118,2.08007958 L93.7458118,5.15087458 L96.2956863,5.15087458 L96.2956863,7.94122523 L93.7458118,7.94122523 L93.7458118,12.7891072 C93.7458118,13.5740695 94.1373222,13.9559811 94.9434582,13.9559811 C95.4043137,13.9559811 95.9287355,13.813645 96.2769053,13.5952085 L96.2769053,13.5952085 Z M87.7676923,12.0281025 C87.7676923,15.001658 85.3319482,17 81.7072257,17 C78.0276051,17 75.4994009,15.2060018 74.9460853,12.2028517 L74.9186363,12.0534693 L78.6025909,12.0534693 L78.6314847,12.1422532 C79.1429043,13.7248611 80.5731455,14.0574484 81.6812213,14.0574484 C83.2776017,14.0574484 84.2310958,13.3739534 84.2310958,12.2310371 C84.2310958,11.3530631 83.7124528,10.8978695 82.3804504,10.6033325 L79.5199679,9.9691619 C76.7591689,9.35613032 75.3592661,7.88062671 75.3592661,5.58211059 C75.3592661,2.68324629 77.777674,0.659537429 81.2391468,0.659537429 C84.6746151,0.659537429 87.0655739,2.38589074 87.6362257,5.27911796 L87.6651195,5.42990964 L84.1111867,5.42990964 L84.0808483,5.34394429 C83.683559,4.20525574 82.6823902,3.57672221 81.2651511,3.57672221 C79.8103502,3.57672221 78.8713029,4.24471524 78.8713029,5.2777087 C78.8713029,6.08381 79.4101716,6.58410014 80.5659221,6.8546796 L83.4784133,7.51280776 C86.2854423,8.14275056 87.7676923,9.70421951 87.7676923,12.0281025 L87.7676923,12.0281025 Z M64.3608555,16.7463318 L67.8454432,16.7463318 L67.8454432,0 L64.3608555,0 L64.3608555,16.7463318 Z M58.3292826,12.7862887 C57.9738894,13.5275636 57.1706428,14.0067147 56.2734914,14.0067147 C54.6872239,14.0067147 53.6210441,12.7834701 53.6210441,10.9612866 C53.6210441,9.12501036 54.6872239,7.89049159 56.2734914,7.89049159 C57.1301915,7.89049159 57.971,8.392191 58.3292826,9.11232695 L58.3292826,12.7862887 Z M58.3292826,5.90201442 C57.7456286,5.3834038 56.715566,4.89720633 55.5453686,4.89720633 C52.3092673,4.89720633 50.1350116,7.33383072 50.1350116,10.9612866 C50.1350116,14.5732405 52.3092673,17 55.5453686,17 C56.715566,17 57.7456286,16.5152118 58.3292826,15.9951919 L58.3292826,16.7463318 L61.8413194,16.7463318 L61.8413194,5.02263119 L58.3292826,5.02263119 L58.3292826,5.90201442 Z M41.3267482,9.59147807 C41.6257986,8.37809832 42.4232665,7.71292382 43.5847957,7.71292382 C44.7015396,7.71292382 45.4527775,8.44574318 45.5307906,9.59147807 L41.3267482,9.59147807 Z M43.5587913,4.89720633 C40.2417874,4.89720633 37.8363817,7.44798143 37.8363817,10.9612866 C37.8363817,14.5732405 40.1565508,17 43.6108001,17 C46.4770613,17 48.4505053,15.4808091 48.8896905,12.9370803 L48.9156949,12.7891072 L45.6709254,12.7891072 L45.644921,12.8821189 C45.3473152,13.9785294 44.3750401,14.2096493 43.6108001,14.2096493 C42.2715742,14.2096493 41.3686442,13.2696676 41.2285094,11.7476581 L48.9691483,11.7476581 L48.9691483,10.6568847 C48.9691483,7.10412004 46.8960209,4.89720633 43.5587913,4.89720633 L43.5587913,4.89720633 Z M33.9747304,5.15087458 L37.5084375,5.15087458 L32.9865637,16.7463318 L29.6868961,16.7463318 L25.1910267,5.15087458 L28.853311,5.15087458 L31.4393028,12.4226975 L33.9747304,5.15087458 Z M17.1426692,9.59147807 C17.4417196,8.37809832 18.2391874,7.71292382 19.4007167,7.71292382 C20.5160159,7.71292382 21.2686984,8.44574318 21.3467116,9.59147807 L17.1426692,9.59147807 Z M19.3732676,4.89720633 C16.0577084,4.89720633 13.650858,7.44798143 13.650858,10.9612866 C13.650858,14.5732405 15.9724718,17 19.4267211,17 C22.2915376,17 24.2664263,15.4808091 24.7056114,12.9370803 L24.7301711,12.7891072 L21.4854016,12.7891072 L21.4608419,12.8821189 C21.1632362,13.9785294 20.1895164,14.2096493 19.4267211,14.2096493 C18.0874952,14.2096493 17.1845651,13.2696676 17.0444304,11.7476581 L24.7850693,11.7476581 L24.7850693,10.6568847 C24.7850693,7.10412004 22.7104972,4.89720633 19.3732676,4.89720633 L19.3732676,4.89720633 Z M3.56260089,3.93185775 L6.5025412,3.93185775 C8.0223531,3.93185775 8.89494472,4.68158833 8.89494472,5.98797977 C8.89494472,7.27746 8.0223531,8.01873497 6.5025412,8.01873497 L3.56260089,8.01873497 L3.56260089,3.93185775 Z M12.4344306,5.98797977 C12.4344306,2.81008041 10.2948475,0.91320567 6.71057629,0.91320567 L0,0.91320567 L0,16.7463318 L3.56260089,16.7463318 L3.56260089,10.9359198 L5.10697249,10.9359198 L9.02063259,16.689961 L9.05963917,16.7463318 L13.1206575,16.7463318 L8.8732744,10.658294 C11.1399901,10.0494902 12.4344306,8.3569593 12.4344306,5.98797977 L12.4344306,5.98797977 Z" id="path-1"></path>
    </defs>
    <g id="Web" stroke="none" stroke-width="1" fill="none" fill-rule="evenodd">
        <g id="Homepage-2.4.1-white" transform="translate(-240.000000, -108.000000)">
            <g id="Text" transform="translate(240.000000, 108.000000)">
                <g id="Strate-1">
                    <g id="Top">
                        <g id="logo/main">
                            <g id="logo/glyph-lightbg" stroke-width="1" fill-rule="evenodd">
                                <g id="Page-1">
                                    <path d="M32,16 C32,28 28,32 16,32 C4,32 0,28 0,16 C0,4 4,0 16,0 C28,0 32,4 32,16" id="Fill-1" fill="#1F1F1F"></path>
                                    <path d="M20.3636364,8 C18.3549091,8 16.7272727,9.62763636 16.7272727,11.6363636 C16.7272727,13.6450909 18.3549091,15.2727273 20.3636364,15.2727273 C22.3723636,15.2727273 24,13.6450909 24,11.6363636 C24,9.62763636 22.3723636,8 20.3636364,8 M10.5570909,10.2254545 L13.4647273,9.49818182 C14.384,9.26981818 15.2727273,9.96363636 15.2727273,10.9090909 L15.2727273,21.8181818 C15.2727273,22.4843636 14.8174545,23.0661818 14.1701818,23.2290909 L11.2625455,23.9563636 C10.3432727,24.1847273 9.45454545,23.4909091 9.45454545,22.5454545 L9.45454545,11.6363636 C9.45454545,10.9701818 9.90981818,10.3883636 10.5570909,10.2254545" id="Fill-3" fill="#FFFFFF"></path>
                                </g>
                            </g>
                            <g id="logo/font" transform="translate(46.914576, 6.323200)">
                                <mask id="mask-2" fill="white">
                                    <use xlink:href="#path-1"></use>
                                </mask>
                                <use id="Reveal-Studio" fill="#1F1F1F" fill-rule="evenodd" xlink:href="#path-1"></use>
                                <g id="color/plain/grey" mask="url(#mask-2)"></g>
                            </g>
                        </g>
                    </g>
                </g>
            </g>
        </g>
    </g>
</svg>