<?xml version="1.0" encoding="UTF-8"?>
<svg width="16px" height="16px" viewBox="0 0 16 16" version="1.1" xmlns="http://www.w3.org/2000/svg" xmlns:xlink="http://www.w3.org/1999/xlink">
    <!-- Generator: Sketch 42 (36781) - http://www.bohemiancoding.com/sketch -->
    <title>favicon-48</title>
    <desc>Created with Sketch.</desc>
    <defs></defs>
    <g id="Test" stroke="none" stroke-width="1" fill="none" fill-rule="evenodd">
        <g id="favicon" fill="#1F1F1F">
            <path d="M8,16 C3.581722,16 0,12.418278 0,8 C0,3.581722 3.581722,0 8,0 C12.418278,0 16,3.581722 16,8 C16,12.418278 12.418278,16 8,16 Z M12.49856,10.56 L11.69984,9.8432 L11.71008,7.3344 C11.71008,6.16704 11.06496,5.55264 10.1536,5.55264 C9.35488,5.55264 8.80192,5.96224 8.5664,6.59712 C8.35136,5.91104 7.80864,5.55264 7.11232,5.55264 C6.37504,5.55264 5.89376,5.91104 5.62752,6.45376 L5.62752,6.44352 L5.52512,5.39904 L3.66144,6.47424 L4.39872,6.95552 L4.39872,9.85344 L3.67168,10.56 L6.42624,10.56 L5.62752,9.83296 L5.62752,7.39584 C5.62752,6.90432 6.02688,6.40256 6.5696,6.40256 C6.9792,6.40256 7.2352,6.57664 7.35808,6.91456 C7.42976,7.13984 7.44,7.44704 7.44,7.7952 L7.42976,9.8432 L6.70272,10.56 L9.45728,10.56 L8.65856,9.8432 L8.6688,7.39584 C8.6688,6.90432 9.06816,6.40256 9.61088,6.40256 C10.02048,6.40256 10.27648,6.57664 10.39936,6.91456 C10.47104,7.13984 10.48128,7.44704 10.48128,7.7952 L10.47104,9.8432 L9.744,10.56 L12.49856,10.56 Z" id="Combined-Shape"></path>
        </g>
    </g>
</svg>