<?xml version="1.0" encoding="UTF-8"?>
<svg width="135px" height="26px" viewBox="0 0 135 26" version="1.1" xmlns="http://www.w3.org/2000/svg" xmlns:xlink="http://www.w3.org/1999/xlink">
    <!-- Generator: Sketch 43.2 (39069) - http://www.bohemiancoding.com/sketch -->
    <title>logotype meaningful@2x</title>
    <desc>Created with Sketch.</desc>
    <defs></defs>
    <g id="Web" stroke="none" stroke-width="1" fill="none" fill-rule="evenodd">
        <g id="Homepage-2.4.1-white" transform="translate(-240.000000, -107.000000)" fill="#1F1F1F">
            <g id="Text" transform="translate(240.000000, 107.000000)">
                <g id="Strate-1">
                    <g id="Top">
                        <path d="M22.6878385,19.8220425 L20.6372575,17.9817998 L20.663547,11.5409505 C20.663547,8.54398382 19.0073085,6.96663296 16.667543,6.96663296 C14.616962,6.96663296 13.197329,8.0182002 12.5926705,9.64812942 C12.040591,7.8867543 10.6472475,6.96663296 8.85956149,6.96663296 C6.96671749,6.96663296 5.73111099,7.8867543 5.047584,9.28008089 L5.047584,9.25379171 L4.784689,6.57229525 L0,9.33265925 L1.892844,10.5682508 L1.892844,18.008089 L0.0262895,19.8220425 L7.09816499,19.8220425 L5.047584,17.9555106 L5.047584,11.6986855 C5.047584,10.4368049 6.07287449,9.14863498 7.46621799,9.14863498 C8.51779799,9.14863498 9.17503549,9.59555106 9.49050949,10.463094 C9.67453599,11.041456 9.70082549,11.8301314 9.70082549,12.7239636 L9.67453599,17.9817998 L7.80798149,19.8220425 L14.879857,19.8220425 L12.829276,17.9817998 L12.8555655,11.6986855 C12.8555655,10.4368049 13.880856,9.14863498 15.2741995,9.14863498 C16.3257795,9.14863498 16.983017,9.59555106 17.298491,10.463094 C17.4825175,11.041456 17.508807,11.8301314 17.508807,12.7239636 L17.4825175,17.9817998 L15.615963,19.8220425 L22.6878385,19.8220425 Z M35.175351,11.6986855 C34.8861665,8.04448938 31.862874,6.96663296 29.6808455,6.96663296 C25.8425785,6.96663296 23.345076,10.0950455 23.345076,13.7755308 C23.345076,17.0091001 25.448236,20.0849343 29.5231085,20.0849343 C32.283506,20.0849343 35.070193,17.9555106 35.070193,14.9848332 C34.0449025,16.6410516 32.5201115,17.429727 30.6798465,17.429727 C28.077186,17.429727 26.447237,15.6420627 26.3157895,13.0131446 L35.175351,13.0131446 L35.175351,11.6986855 Z M26.3157895,11.6986855 C26.342079,9.43781598 27.86687,8.20222447 29.286503,8.20222447 C30.9427415,8.20222447 31.810295,9.62184024 31.810295,11.6986855 L26.3157895,11.6986855 Z M49.9763395,19.8220425 L47.84689,17.9817998 L47.84689,11.5409505 C47.84689,8.0182002 45.375677,6.96663296 42.9833325,6.96663296 C39.223934,6.96663296 37.1996425,8.93832154 37.1996425,10.3579373 C37.1996425,11.4357937 37.8305905,12.3559151 39.066197,12.3559151 C40.0914875,12.3559151 40.906462,11.5935288 40.906462,10.6471183 C40.906462,9.75328615 40.4069615,9.17492417 39.5131185,8.88574317 C40.0914875,8.46511628 40.696146,8.28109201 41.8265945,8.28109201 C43.272517,8.28109201 44.5607025,9.1223458 44.69215,10.8837209 C44.5607025,12.9868554 42.1420685,13.1971689 40.328093,13.4600607 C37.909459,13.7755308 36.752721,15.2740142 36.752721,17.0091001 C36.752721,18.4812942 37.8305905,20.0849343 40.3543825,20.0849343 C42.1420685,20.0849343 44.1400705,18.7967644 44.902466,17.140546 L44.902466,19.8220425 L49.9763395,19.8220425 Z M41.800305,17.8240647 C40.538409,17.8240647 40.1440665,16.9828109 40.117777,16.4307381 C40.065198,15.5894843 40.3543825,14.7745197 42.1946475,14.3538928 C43.3513855,14.0647118 44.16636,13.6703741 44.7184395,13.223458 L44.7184395,15.6946411 C44.16636,17.2719919 42.799306,17.8240647 41.800305,17.8240647 Z M63.4365634,17.9817998 L63.4628529,11.8038423 C63.4628529,10.5682508 63.2788264,9.51668352 62.7530364,8.72800809 C62.0169304,7.57128413 60.6761659,6.96663296 59.2039539,6.96663296 C57.1796624,6.96663296 55.9703454,7.93933266 55.260529,9.38523761 L55.260529,9.25379171 L54.997634,6.57229525 L50.212945,9.33265925 L52.105789,10.5682508 L52.105789,18.008089 L50.2392345,19.8220425 L57.3111099,19.8220425 L55.260529,17.9555106 L55.260529,11.6986855 C55.260529,10.2790698 56.3909774,9.1223458 57.8631894,9.1223458 C58.8096114,9.1223458 59.5194279,9.46410516 59.9137704,10.2002022 C60.2555339,10.8574317 60.3081129,11.8301314 60.3081129,12.8554095 L60.2818234,17.9817998 L58.4152689,19.8220425 L65.4871444,19.8220425 L63.4365634,17.9817998 Z M69.3779904,4.73205258 C70.4558599,4.73205258 71.3759924,3.83822042 71.3759924,2.73407482 C71.3759924,1.6562184 70.4558599,0.736097068 69.3779904,0.736097068 C68.2738314,0.736097068 67.3799884,1.6562184 67.3799884,2.73407482 C67.3799884,3.83822042 68.2475419,4.73205258 69.3779904,4.73205258 Z M72.8219149,19.8220425 L70.7713339,17.9555106 L70.7713339,6.57229525 L65.7237499,9.33265925 L67.6165939,10.5682508 L67.6165939,18.008089 L65.7500394,19.8220425 L72.8219149,19.8220425 Z M86.3872969,17.9817998 L86.4135864,11.8038423 C86.4135864,10.5682508 86.2295599,9.51668352 85.7037699,8.72800809 C84.9676639,7.57128413 83.6268994,6.96663296 82.1546874,6.96663296 C80.1303959,6.96663296 78.9210789,7.93933266 78.2112624,9.38523761 L78.2112624,9.25379171 L77.9483674,6.57229525 L73.1636784,9.33265925 L75.0565224,10.5682508 L75.0565224,18.008089 L73.1899679,19.8220425 L80.2618434,19.8220425 L78.2112624,17.9555106 L78.2112624,11.6986855 C78.2112624,10.2790698 79.3417109,9.1223458 80.8139229,9.1223458 C81.7603449,9.1223458 82.4701614,9.46410516 82.8645039,10.2002022 C83.2062674,10.8574317 83.2588464,11.8301314 83.2588464,12.8554095 L83.2325569,17.9817998 L81.3660024,19.8220425 L88.4378779,19.8220425 L86.3872969,17.9817998 Z M93.1699879,17.2457027 L94.2215679,16.3781598 C94.6159104,16.4307381 95.0365424,16.4570273 95.4834639,16.4570273 C99.0325464,16.4570273 101.530049,14.669363 101.530049,11.6986855 C101.530049,9.04347826 99.6109154,7.28210313 96.5350439,7.01921132 C96.2458594,6.59858443 96.1669909,6.12537917 96.1669909,5.96764408 C96.1669909,5.31041456 96.5876229,5.02123357 97.2974394,5.02123357 C98.4278879,5.02123357 99.1114149,4.33771486 99.1114149,3.33872599 C99.1114149,2.18200202 98.2438614,1.60364004 97.1922814,1.60364004 C95.7726484,1.60364004 94.8262264,2.81294237 94.8262264,4.41658241 C94.8262264,5.02123357 94.9576739,6.20424671 95.4308849,6.99292214 C92.0132499,7.09807887 89.4894579,8.91203236 89.4894579,11.6986855 C89.4894579,13.8543984 90.8565119,15.4317492 92.9859614,16.0889788 L89.5420369,18.9019211 L92.8808034,19.6905966 C90.5147484,20.0586451 88.8059309,21.3731041 88.8059309,22.7927199 C88.8059309,25.1587462 92.3813029,26 95.4834639,26 C99.7423629,26 102.50276,24.107179 102.50276,21.6885743 C102.50276,19.6643074 101.083127,18.9807887 99.1114149,18.5338726 L93.1699879,17.2457027 Z M95.5097534,8.12335693 C97.2974394,8.12335693 97.9809664,9.49039434 97.9809664,11.6986855 C97.9809664,13.8806876 97.4288869,15.2740142 95.5097534,15.2740142 C93.7220674,15.2740142 93.0385404,13.9069767 93.0385404,11.6986855 C93.0385404,9.51668352 93.6957779,8.12335693 95.5097534,8.12335693 Z M95.8778064,24.8169869 C93.5906199,24.8169869 92.0658289,23.7917088 92.0921184,22.372093 C92.1184079,21.346815 92.8282244,20.3741153 94.0375414,19.9797776 L97.3500184,20.768453 C98.9273884,21.1365015 99.5320469,21.5571284 99.5583364,22.5298281 C99.5846259,24.0808898 97.7180714,24.8169869 95.8778064,24.8169869 Z M107.997266,1.44590495 C108.81224,1.44590495 108.943688,2.02426694 108.943688,2.94438827 C108.943688,4.12740142 109.416899,5.10010111 110.9154,5.10010111 C112.019559,5.10010111 112.939692,4.39029323 112.939692,3.10212336 C112.939692,1.1041456 111.099427,0 109.101425,0 C106.393606,0 104.448183,1.84024267 104.448183,4.46916077 C104.448183,5.46814965 104.763657,6.3619818 104.973973,7.22952477 L103.133708,7.22952477 L103.133708,8.91203236 L105.13171,8.91203236 L105.13171,18.008089 L103.265156,19.8220425 L110.337031,19.8220425 L108.28645,17.9555106 L108.28645,8.91203236 L111.283453,8.91203236 L111.283453,7.22952477 L108.601924,7.22952477 L107.576634,5.78361982 C106.787949,4.67947422 106.393606,3.91708797 106.393606,3.10212336 C106.393606,2.10313448 107.050844,1.44590495 107.997266,1.44590495 Z M126.794258,18.3498483 L124.901414,17.0353893 L124.901414,6.54600607 L119.590935,9.06976744 L121.746674,10.7259858 L121.746674,15.3528817 C121.746674,16.7724975 120.747673,17.9292214 119.275461,17.9292214 C118.329039,17.9292214 117.619223,17.5874621 117.22488,16.851365 C116.883117,16.1941355 116.830538,15.2214358 116.830538,14.1961577 L116.830538,6.54600607 L111.809243,9.06976744 L113.675798,10.7785642 L113.675798,15.247725 C113.675798,16.4833165 113.859824,17.5348837 114.385614,18.3235592 C115.12172,19.4802831 116.462485,20.0849343 117.934697,20.0849343 C119.88012,20.0849343 121.010568,19.1648129 121.825543,17.7977755 L121.825543,18.1132457 L122.035859,20.4266936 L126.794258,18.3498483 Z M134.365634,19.8220425 L132.315053,17.9555106 L132.315053,0.105156724 L127.267469,2.86552073 L129.160313,4.10111223 L129.160313,18.008089 L127.293759,19.8220425 L134.365634,19.8220425 Z" id="logotype-meaningful"></path>
                    </g>
                </g>
            </g>
        </g>
    </g>
</svg>