<?xml version="1.0" encoding="UTF-8"?>
<svg width="50px" height="50px" viewBox="0 0 50 50" version="1.1" xmlns="http://www.w3.org/2000/svg" xmlns:xlink="http://www.w3.org/1999/xlink">
    <!-- Generator: Sketch 46 (44423) - http://www.bohemiancoding.com/sketch -->
    <title>Combined Shape</title>
    <desc>Created with Sketch.</desc>
    <defs></defs>
    <g id="Symbols" stroke="none" stroke-width="1" fill="none" fill-rule="evenodd">
        <g id="logo/glyph-lightbg" fill="#1F1F1F">
            <g id="Page-1">
                <path d="M50,25 C50,43.75 43.75,50 25,50 C6.25,50 0,43.75 0,25 C0,6.25 6.25,0 25,0 C43.75,0 50,6.25 50,25 Z M31.8181818,12.5 C28.6795455,12.5 26.1363636,15.0431818 26.1363636,18.1818182 C26.1363636,21.3204545 28.6795455,23.8636364 31.8181818,23.8636364 C34.9568182,23.8636364 37.5,21.3204545 37.5,18.1818182 C37.5,15.0431818 34.9568182,12.5 31.8181818,12.5 Z M16.4954545,15.9772727 C15.4840909,16.2318182 14.7727273,17.1409091 14.7727273,18.1818182 L14.7727273,35.2272727 C14.7727273,36.7045455 16.1613636,37.7886364 17.5977273,37.4318182 L22.1409091,36.2954545 C23.1522727,36.0409091 23.8636364,35.1318182 23.8636364,34.0909091 L23.8636364,17.0454545 C23.8636364,15.5681818 22.475,14.4840909 21.0386364,14.8409091 L16.4954545,15.9772727 Z" id="Combined-Shape"></path>
            </g>
        </g>
    </g>
</svg>