<?xml version="1.0" encoding="UTF-8"?>
<svg width="72px" height="22px" viewBox="0 0 72 22" version="1.1" xmlns="http://www.w3.org/2000/svg" xmlns:xlink="http://www.w3.org/1999/xlink">
    <!-- Generator: Sketch 44.1 (41455) - http://www.bohemiancoding.com/sketch -->
    <title>reveal</title>
    <desc>Created with Sketch.</desc>
    <defs></defs>
    <g id="Web" stroke="none" stroke-width="1" fill="none" fill-rule="evenodd">
        <g id="Homepage-2.4.1-white" transform="translate(-240.000000, -107.000000)" fill="#1F1F1F">
            <g id="Text" transform="translate(240.000000, 102.000000)">
                <g id="Strate-1">
                    <g id="Top">
                        <path d="M8.45,12.208 C6.994,12.208 5.772,13.404 5.174,15.328 L5.174,14.548 L4.914,11.896 L0.182,14.626 L2.054,15.848 L2.054,23.206 L0.208,25 L7.202,25 L5.174,23.154 L5.174,18.214 C5.278,16.394 5.98,15.068 6.604,15.068 C7.306,15.068 7.41,16.316 8.762,16.316 C9.88,16.316 10.582,15.38 10.582,14.288 C10.582,12.858 9.542,12.208 8.45,12.208 Z M22.88,16.966 L22.88,18.266 L14.118,18.266 C14.248,20.866 15.86,22.634 18.434,22.634 C20.254,22.634 21.762,21.854 22.776,20.216 C22.776,23.154 20.02,25.26 17.29,25.26 C13.26,25.26 11.18,22.218 11.18,19.02 C11.18,15.38 13.65,12.286 17.446,12.286 C19.604,12.286 22.594,13.352 22.88,16.966 Z M14.118,16.966 L19.552,16.966 C19.552,14.912 18.694,13.508 17.056,13.508 C15.652,13.508 14.144,14.73 14.118,16.966 Z M30.602,25 L30.056,26.092 L24.648,14.392 L22.568,12.546 L29.952,12.546 L28.262,14.47 L31.2,20.944 L34.242,14.626 L32.474,12.546 L38.454,12.546 L35.646,14.886 L30.602,25 Z M49.348,16.966 L49.348,18.266 L40.586,18.266 C40.716,20.866 42.328,22.634 44.902,22.634 C46.722,22.634 48.23,21.854 49.244,20.216 C49.244,23.154 46.488,25.26 43.758,25.26 C39.728,25.26 37.648,22.218 37.648,19.02 C37.648,15.38 40.118,12.286 43.914,12.286 C46.072,12.286 49.062,13.352 49.348,16.966 Z M40.586,16.966 L46.02,16.966 C46.02,14.912 45.162,13.508 43.524,13.508 C42.12,13.508 40.612,14.73 40.586,16.966 Z M63.986,25 L58.968,25 L58.968,22.348 C58.214,23.986 56.238,25.26 54.47,25.26 C51.974,25.26 50.908,23.674 50.908,22.218 C50.908,20.502 52.052,19.02 54.444,18.708 C56.238,18.448 58.63,18.24 58.76,16.16 C58.63,14.418 57.356,13.586 55.926,13.586 C54.808,13.586 54.21,13.768 53.638,14.184 C54.522,14.47 55.016,15.042 55.016,15.926 C55.016,16.862 54.21,17.616 53.196,17.616 C51.974,17.616 51.35,16.706 51.35,15.64 C51.35,14.236 53.352,12.286 57.07,12.286 C59.436,12.286 61.88,13.326 61.88,16.81 L61.88,23.18 L63.986,25 Z M55.9,23.024 C56.888,23.024 58.24,22.478 58.786,20.918 L58.786,18.474 C58.24,18.916 57.434,19.306 56.29,19.592 C54.47,20.008 54.184,20.814 54.236,21.646 C54.262,22.192 54.652,23.024 55.9,23.024 Z M71.188,25 L69.16,23.154 L69.16,5.5 L64.168,8.23 L66.04,9.452 L66.04,23.206 L64.194,25 L71.188,25 Z" id="reveal"></path>
                    </g>
                </g>
            </g>
        </g>
    </g>
</svg>